<svg xmlns="http://www.w3.org/2000/svg" version="1.1" xmlns:xlink="http://www.w3.org/1999/xlink" xmlns:svgjs="http://svgjs.dev/svgjs" width="1000" height="623" viewBox="0 0 1000 623"><g transform="matrix(1,0,0,1,-0.6060606060606233,0.2522267206477409)"><svg viewBox="0 0 396 247" data-background-color="#ffbe79" preserveAspectRatio="xMidYMid meet" height="623" width="1000" xmlns="http://www.w3.org/2000/svg" xmlns:xlink="http://www.w3.org/1999/xlink"><g id="tight-bounds" transform="matrix(1,0,0,1,0.2400000000000091,-0.09999999999999432)"><svg viewBox="0 0 395.52 247.2" height="247.2" width="395.52"><g><svg></svg></g><g><svg viewBox="0 0 395.52 247.2" height="247.2" width="395.52"><g transform="matrix(1,0,0,1,39.55199999999999,83.77447302904564)"><svg viewBox="0 0 316.416 79.65105394190871" height="79.65105394190871" width="316.416"><g><svg viewBox="0 0 316.416 79.65105394190871" height="79.65105394190871" width="316.416"><g><svg viewBox="0 0 316.416 79.65105394190871" height="79.65105394190871" width="316.416"><g><svg viewBox="0 0 316.416 79.65105394190871" height="79.65105394190871" width="316.416"><g><svg viewBox="0 0 316.416 79.65105394190871" height="79.65105394190871" width="316.416"><g><svg viewBox="0 0 316.416 79.65105394190871" height="79.65105394190871" width="316.416"><g transform="matrix(1,0,0,1,0,0)"><svg width="316.416" viewBox="3.6 -35.9 144.58 36.4" height="79.65105394190871" data-palette-color="#374151"><path d="M14.65-25.5L14.65-25.5Q19.7-25.5 21.73-22.63 23.75-19.75 23.75-12.55 23.75-5.35 21.23-2.43 18.7 0.5 11.95 0.5L11.95 0.5Q9.85 0.5 5 0.1L5 0.1 3.6-0.05 3.6-35.9 7.3-35.9 7.3-23.75Q11.1-25.5 14.65-25.5ZM11.9-2.85L11.9-2.85Q16.8-2.85 18.38-5.08 19.95-7.3 19.95-12.6 19.95-17.9 18.7-20.03 17.45-22.15 14.25-22.15L14.25-22.15Q11.35-22.15 8.3-21.05L8.3-21.05 7.3-20.7 7.3-3.1Q10.55-2.85 11.9-2.85ZM33.65 0L29.9 0 29.9-25 33.65-25 33.65 0ZM33.65-30.65L29.9-30.65 29.9-35 33.65-35 33.65-30.65ZM44.6-11.45L44.6 0 40.85 0 40.85-35.9 44.6-35.9 44.6-14.7 48.5-14.9 55.65-25 59.9-25 51.75-13.5 60.25 0 56 0 48.55-11.6 44.6-11.45ZM81.14-3.1L81.14-3.1 82.59-3.25 82.69-0.3Q76.99 0.5 72.94 0.5L72.94 0.5Q67.54 0.5 65.29-2.63 63.04-5.75 63.04-12.35L63.04-12.35Q63.04-25.5 73.49-25.5L73.49-25.5Q78.54-25.5 81.04-22.68 83.54-19.85 83.54-13.8L83.54-13.8 83.34-10.95 66.84-10.95Q66.84-6.8 68.34-4.8 69.84-2.8 73.57-2.8 77.29-2.8 81.14-3.1ZM66.79-13.95L79.79-13.95Q79.79-18.55 78.32-20.45 76.84-22.35 73.52-22.35 70.19-22.35 68.52-20.35 66.84-18.35 66.79-13.95L66.79-13.95ZM93.14 0L89.39 0 89.39-25 93.09-25 93.09-21.6Q97.44-24.6 102.24-25.55L102.24-25.55 102.24-21.75Q100.14-21.35 97.87-20.5 95.59-19.65 94.39-19L94.39-19 93.14-18.35 93.14 0ZM105.09-12.55Q105.09-19.4 107.54-22.45 109.99-25.5 115.81-25.5 121.64-25.5 124.06-22.45 126.49-19.4 126.49-12.55 126.49-5.7 124.19-2.6 121.89 0.5 115.79 0.5 109.69 0.5 107.39-2.6 105.09-5.7 105.09-12.55ZM108.94-12.63Q108.94-7.15 110.26-4.95 111.59-2.75 115.81-2.75 120.04-2.75 121.34-4.93 122.64-7.1 122.64-12.6 122.64-18.1 121.19-20.18 119.74-22.25 115.81-22.25 111.89-22.25 110.41-20.18 108.94-18.1 108.94-12.63ZM136.64 0L132.89 0 132.89-35.9 136.64-35.9 136.64 0ZM148.18 0L144.43 0 144.43-35.9 148.18-35.9 148.18 0Z" opacity="1" transform="matrix(1,0,0,1,0,0)" fill="#374151" class="undefined-text-0" data-fill-palette-color="primary" id="text-0"></path></svg></g></svg></g></svg></g></svg></g></svg></g></svg></g></svg></g><g mask="url(#dc7f8678-4ddd-4982-a21b-60d4bda525fe)"><g transform="matrix(6.079406658965706, 0, 0, 6.079406658965706, 1, 6.1437950646893)"><svg xmlns="http://www.w3.org/2000/svg" xmlns:xlink="http://www.w3.org/1999/xlink" version="1.1" x="0" y="0" viewBox="3.0279999999999934 14.945319576988567 64.73000114569567 38.64068042301142" enable-background="new 0 0 72 72" xml:space="preserve" height="38.64068042301142" width="64.73000114569567" class="icon-none" data-fill-palette-color="accent" id="none"><path d="M54.604 27.275c-1.836 0-3.582 0.378-5.169 1.057l-0.443-1.451 0.168-0.054c0.044-0.015 0.068-0.062 0.055-0.106l-0.042-0.128c-0.014-0.042-0.061-0.067-0.104-0.054l-0.162 0.054-0.656-2.146c-0.292-0.955-0.586-1.911-0.883-2.864l0.106-0.036c0.045-0.013 0.068-0.061 0.056-0.103l-0.042-0.131c-0.014-0.042-0.061-0.065-0.104-0.054l-0.106 0.034-0.045 0.015-0.474-1.338h3.498c0.083 0 0.184 0.003 0.296 0.012 1.345 0.102 2.341 0.153 3.227 0.153 1.026 0 1.904-0.07 3.001-0.213 0.274-0.036 0.467-0.286 0.432-0.56-0.036-0.274-0.296-0.471-0.561-0.431-1.985 0.259-3.168 0.269-6.021 0.054-0.141-0.011-0.269-0.015-0.373-0.015h-3.829c-0.12 0-0.226 0.048-0.312 0.118l-0.802 0.252 0.821 2.319-0.097 0.031c-0.042 0.014-0.066 0.06-0.053 0.104l0.042 0.128c0.013 0.043 0.061 0.069 0.104 0.055l0.105-0.034c0.046 0.139 0.09 0.277 0.136 0.415h-20.17l-0.167-0.567-0.11-0.378-0.056 0.017-1.057-3.653c-0.029-0.113-0.098-0.339-0.646-0.593l0.119-0.007c0.211-0.014 0.499-0.131 0.655-0.272l0.751-0.678c0.225 0.006 0.391 0.018 0.432 0.042 0.146 0.081 1.038 0.103 1.37 0.103 0.331 0 0.85 0.022 0.933 0.022s0.331-0.209-0.062-0.457c-0.395-0.25-0.975-0.746-2.695-0.746s-4.852 0-5.101 0-0.592-0.041-0.87-0.124c-0.324-0.099-1.492-0.168-1.679-0.084-0.188 0.084-0.153 0.282 0.165 0.58 0.215 0.2 0.591 0.559 0.803 0.664 0.163 0.082 0.744 0.316 1.371 0.467l0.331 0.365c0.141 0.156 0.408 0.271 0.623 0.271 0.01 0 0.02 0 0.029 0l1.043-0.056c-0.008 0.05-0.012 0.1-0.012 0.151 0 0.44 0.228 0.812 0.839 0.827 0.206 0.003 0.514-0.061 0.736-0.159 0.003 0.002 0.006 0.003 0.009 0.005l1.037 3.591-0.104 0.03 0.111 0.377 0.365 1.243c-0.004 0.009-0.009 0.018-0.014 0.025l-0.297 0.538-0.595 1.076-1.189 2.152-0.938 1.674c-1.836-0.973-3.927-1.529-6.149-1.529-7.267 0-13.156 5.89-13.156 13.157 0 7.266 5.89 13.154 13.156 13.154 5.604 0 10.378-3.509 12.273-8.445l1.271 0.363c0.223 0.142 0.461 0.266 0.72 0.358 1.892 0.68 3.976-0.304 4.654-2.194 0.421-1.172 0.201-2.416-0.475-3.355l13.029-14.095 0.232 0.699-0.165 0.052c-0.044 0.013-0.066 0.061-0.054 0.105l0.042 0.128c0.012 0.043 0.062 0.067 0.104 0.052l0.168-0.052 0.526 1.574c-4.196 2.198-7.064 6.588-7.064 11.656 0 7.266 5.891 13.154 13.156 13.154 7.269 0 13.157-5.889 13.157-13.154C67.761 33.165 61.872 27.275 54.604 27.275zM23.629 16.959c-0.125-0.209-0.332-0.346-0.566-0.346-0.256 0-0.479 0.164-0.599 0.407l-1.136 0.058c-0.145 0.009-0.357-0.08-0.455-0.188l-0.104-0.112c0.204 0.031 0.403 0.052 0.588 0.048 0.905-0.013 1.264-0.455 1.596-0.518 0.332-0.062 0.975-0.062 0.975-0.062 0.235 0 0.869-0.021 1.396-0.022l-0.549 0.495c-0.114 0.104-0.348 0.201-0.501 0.207L23.629 16.959zM23.816 27.433l1.195-2.149 0.598-1.074 0.009-0.016 4.368 14.83-0.721 0.007c-0.448-4.223-2.898-7.837-6.378-9.905L23.816 27.433zM27.951 39.042L17.535 39.14l1.596-3.056 1.157-2.172 1.169-2.162c0.267-0.496 0.537-0.988 0.807-1.481C25.343 32.114 27.515 35.309 27.951 39.042zM29.315 40.955c0.1 0.017 0.199 0.061 0.286 0.161l0.705 0.817c0.003 0.004 0.004 0.009 0.007 0.012l-1.041-0.157C29.301 41.515 29.305 41.234 29.315 40.955zM29.885 40.764c-0.318-0.162-0.363-0.495-0.096-0.736 0 0 0.16-0.135 0.409-0.281l0.409 1.388L29.885 40.764zM29.305 39.703c-0.008-0.141-0.009-0.283-0.021-0.423l0.632-0.006C29.697 39.396 29.494 39.539 29.305 39.703zM28.04 40.433c0 0.392-0.021 0.779-0.059 1.162l-10.471-1.577c-0.045-0.156-0.097-0.332-0.21-0.43l0.103-0.197 10.579-0.099C28.019 39.668 28.04 40.048 28.04 40.433zM17.316 41.178l10.479 1.659c-0.121 0.59-0.299 1.158-0.504 1.712l-10.43-2.977C17.039 41.471 17.2 41.345 17.316 41.178zM29.081 43.041l0.895 0.142-0.445 0.445c-0.197 0.197-0.438 0.197-0.604 0.037C28.978 43.456 29.039 43.252 29.081 43.041zM32.197 42.719c-0.109 0.303-0.443 0.463-0.748 0.354-0.304-0.108-0.461-0.445-0.352-0.749 0.107-0.303 0.442-0.46 0.746-0.352C32.147 42.082 32.306 42.416 32.197 42.719zM32.651 40.621l0.065-0.406c0.055-0.332 0.327-0.471 0.621-0.335L32.651 40.621zM32.293 40.055l-0.56 0.924c-0.01 0.016-0.025 0.025-0.036 0.04l-0.479-1.626c0.436-0.058 0.769-0.005 0.769-0.005C32.342 39.445 32.479 39.747 32.293 40.055zM16.185 52.288c-6.547 0-11.854-5.309-11.854-11.855 0-6.548 5.308-11.854 11.854-11.854 1.991 0 3.863 0.496 5.511 1.363-0.276 0.493-0.552 0.986-0.832 1.477l-1.216 2.139-1.227 2.131c-0.65 1.116-1.299 2.233-1.96 3.344l-0.198-0.002c-0.021 0-0.044-0.002-0.067-0.002-0.756 0-1.368 0.612-1.368 1.367 0 0.674 0.488 1.233 1.13 1.348l0.524-0.01c0.005-0.001 0.009-0.004 0.013-0.005l10.711 3.057C25.469 49.176 21.194 52.288 16.185 52.288zM28.692 44.503c0.146 0.211 0.309 0.41 0.498 0.588l-0.646-0.184C28.594 44.772 28.647 44.64 28.692 44.503zM31.79 45.502c0 0-0.558 0.061-1.161-0.157-0.604-0.216-0.995-0.618-0.995-0.618-0.251-0.256-0.187-0.58 0.145-0.722l0.997-0.421c0.025-0.011 0.053-0.008 0.079-0.016 0.214 0.169 0.479 0.276 0.771 0.289 0.014 0.021 0.033 0.035 0.045 0.057l0.474 0.936C32.307 45.17 32.146 45.463 31.79 45.502zM34.625 43.28c0 0-0.113 0.546-0.508 1.056-0.392 0.506-0.894 0.754-0.894 0.754-0.321 0.158-0.61-0.002-0.642-0.359l-0.093-1.078c-0.003-0.031 0.009-0.061 0.011-0.091 0.202-0.158 0.356-0.361 0.441-0.609 0.046-0.018 0.088-0.043 0.138-0.05l1.035-0.163C34.469 42.686 34.697 42.928 34.625 43.28zM34.678 41.79c0.053 0.354-0.191 0.58-0.541 0.498l-1.054-0.246c-0.014-0.003-0.024-0.013-0.037-0.017l1.201-1.299C34.596 41.25 34.678 41.79 34.678 41.79zM33.731 39.452c-0.253-0.174-0.522-0.329-0.825-0.438-0.613-0.22-1.242-0.25-1.842-0.146l-4.496-15.268h20.214c0.133 0.396 0.265 0.792 0.396 1.187l0.028 0.083L33.731 39.452zM54.604 52.288c-6.547 0-11.854-5.309-11.854-11.855 0-4.492 2.498-8.398 6.18-10.409l0.037 0.11 0.896 2.673 0.45 1.337 0.112 0.334 0.032 0.095 0.031 0.083 0.065 0.172c0.092 0.228 0.186 0.448 0.286 0.668 0.406 0.876 0.884 1.709 1.426 2.5 0.27 0.392 0.555 0.782 0.862 1.15 0.156 0.183 0.316 0.364 0.488 0.54 0.168 0.174 0.351 0.343 0.555 0.498 0.107 0.099 0.274 0.091 0.373-0.017 0.098-0.107 0.09-0.275-0.018-0.373-0.01-0.009-0.023-0.005-0.035-0.012l0.004-0.004c-0.322-0.286-0.615-0.646-0.887-1.011-0.272-0.368-0.53-0.751-0.769-1.144-0.479-0.789-0.912-1.607-1.265-2.449-0.087-0.212-0.171-0.425-0.245-0.639l-0.055-0.158-0.027-0.084-0.021-0.072-0.104-0.337-0.409-1.348-0.818-2.698-0.075-0.247c1.464-0.647 3.08-1.013 4.784-1.013 6.549 0 11.855 5.307 11.855 11.854C66.459 46.979 61.152 52.288 54.604 52.288z" fill="#374151" data-fill-palette-color="accent"></path></svg></g></g></svg></g><defs><mask id="dc7f8678-4ddd-4982-a21b-60d4bda525fe"><rect width="640" height="400" fill="white"></rect><rect width="348.05760000000004" height="117.2584583626888" fill="black" x="145.97119999999998" y="141.37077081865561" id="transform-me" transform="matrix(1,0,0,1,-122.24000000000001,-76.4)"></rect></mask></defs></svg><rect width="395.52" height="247.2" fill="none" stroke="none" visibility="hidden"></rect></g></svg></g></svg>